<?xml version="1.0" standalone="no"?>
<!DOCTYPE svg PUBLIC "-//W3C//DTD SVG 20010904//EN"
 "http://www.w3.org/TR/2001/REC-SVG-20010904/DTD/svg10.dtd">
<svg version="1.0" xmlns="http://www.w3.org/2000/svg"
 width="512.000000pt" height="512.000000pt" viewBox="0 0 512.000000 512.000000"
 preserveAspectRatio="xMidYMid meet">

<g transform="translate(0.000000,512.000000) scale(0.100000,-0.100000)"
fill="#000000" stroke="none">
<path d="M385 5114 c-153 -33 -250 -98 -319 -214 -65 -109 -61 57 -61 -2340 0
-2397 -4 -2231 61 -2340 54 -91 142 -162 243 -198 42 -15 209 -17 1951 -19
l1905 -3 478 478 477 477 -3 1905 c-2 1750 -4 1909 -19 1952 -37 103 -120 202
-210 250 -108 57 64 52 -2303 54 -1199 1 -2189 0 -2200 -2z m843 -351 c81 -38
131 -122 132 -216 0 -98 -46 -172 -135 -213 -90 -42 -184 -29 -258 36 -54 48
-79 105 -79 181 0 69 22 120 75 171 68 66 177 82 265 41z m722 -3 c48 -24 104
-88 120 -135 7 -20 10 -63 8 -95 -8 -118 -100 -210 -218 -218 -73 -5 -122 11
-172 56 -76 69 -101 153 -74 247 42 142 204 212 336 145z m678 15 c66 -20 119
-66 148 -130 73 -156 -43 -335 -216 -335 -173 0 -289 180 -216 335 31 65 73
103 138 126 65 23 81 23 146 4z m721 -1 c73 -21 135 -84 156 -159 27 -93 2
-179 -73 -247 -50 -45 -99 -61 -172 -56 -118 8 -210 100 -218 218 -5 73 11
122 56 172 71 78 152 102 251 72z m718 1 c97 -29 165 -121 165 -224 0 -76 -25
-133 -79 -181 -74 -65 -168 -78 -258 -36 -88 40 -135 114 -135 211 0 135 99
237 236 244 11 1 43 -6 71 -14z m813 -2238 l0 -1483 -27 -26 -28 -27 -235 -3
c-228 -3 -237 -4 -284 -28 -63 -32 -124 -93 -156 -156 -24 -48 -25 -56 -28
-285 l-3 -236 -28 -27 -27 -26 -1835 2 -1834 3 -47 28 c-31 18 -57 44 -75 75
l-28 47 -3 1813 -2 1812 2320 0 2320 0 0 -1483z"/>
<path d="M1524 3335 c-342 -60 -518 -275 -527 -641 l-2 -109 253 -3 252 -2 0
65 c0 81 17 196 36 241 39 93 121 136 219 114 106 -24 140 -98 140 -305 0
-125 -1 -133 -31 -195 -46 -98 -139 -205 -328 -380 -94 -87 -192 -183 -218
-213 -203 -235 -313 -488 -334 -764 l-7 -93 737 0 736 0 0 210 0 210 -405 0
c-223 0 -405 4 -405 8 0 36 105 154 319 362 324 315 395 402 446 554 46 137
51 407 10 560 -48 180 -189 309 -400 366 -105 29 -369 36 -491 15z"/>
<path d="M3346 3291 c-23 -76 -73 -150 -133 -194 -92 -67 -180 -94 -340 -103
l-113 -7 0 -168 0 -169 220 0 220 0 0 -800 0 -800 275 0 275 0 0 1150 0 1150
-193 0 -193 0 -18 -59z"/>
</g>
</svg>
